<svg xmlns="http://www.w3.org/2000/svg" viewBox="0 0 1024 1024" width="1024" height="1024">
  <defs>
    <linearGradient id="bg" x1="0" y1="0" x2="1024" y2="1024" gradientUnits="userSpaceOnUse">
      <stop offset="0" stop-color="#6c5ce7"/>
      <stop offset="1" stop-color="#0984e3"/>
    </linearGradient>
  </defs>

  <rect width="1024" height="1024" fill="url(#bg)"/>

  <g transform="translate(176 120) scale(28)"
     fill="none"
     stroke="#ffffff"
     stroke-width="1.6"
     stroke-linecap="round"
     stroke-linejoin="round">
    <path d="M12 7v14"/>
    <path d="M3 18a1 1 0 0 1-1-1V4a1 1 0 0 1 1-1h5a4 4 0 0 1 4 4 4 4 0 0 1 4-4h5a1 1 0 0 1 1 1v13a1 1 0 0 1-1 1h-6a3 3 0 0 0-3 3 3 3 0 0 0-3-3z"/>
  </g>
</svg>
